# Blender v2.79 (sub 0) OBJ File: 'cd.blend'
# www.blender.org
mtllib vivaldi_fs.mtl
o vivaldi
v 1.455942 0.158780 -1.286910
v 1.455942 0.158779 1.286910
v 1.488098 0.155168 1.286910
v 1.488098 0.155169 -1.286910
v 1.457078 0.004606 -1.286720
v 1.489234 0.008169 -1.286720
v 1.489233 0.008168 1.286720
v 1.457077 0.004606 1.286720
v -1.563983 0.147533 1.337301
v 1.443669 0.147532 1.337301
v 1.452879 0.147968 1.392887
v -1.485893 0.147969 1.392887
v -1.501759 0.147533 1.361365
v 1.443669 0.014822 1.337300
v 1.452879 0.014386 1.392887
v 1.532895 0.020258 1.317902
v 1.532896 0.020258 -1.317902
v 1.489234 0.008169 -1.351056
v 1.512266 0.017910 -1.366249
v -1.537354 0.147972 1.392887
v -1.473400 0.158780 1.351254
v -1.522392 0.158780 1.351254
v -1.586669 0.147972 1.392887
v -1.563983 0.147533 -1.317902
v -1.563983 0.014823 -1.317902
v -1.563983 0.014822 1.337301
v 1.532895 0.142096 1.317902
v 1.510000 0.144445 1.366210
v 1.510000 0.017909 1.366210
v -1.576313 0.147533 1.361365
v -1.576313 0.147533 1.317902
v 1.532896 0.142097 -1.317902
v -1.421140 0.004606 -1.351056
v -1.485893 0.014387 -1.392887
v 1.452880 0.014387 -1.392887
v 1.457078 0.004606 -1.351056
v 1.512266 0.144445 -1.366249
v 1.488098 0.155169 -1.351255
v -1.447837 0.158780 -1.286910
v -1.447837 0.158780 1.286909
v -1.446702 0.004607 -1.286720
v -1.446702 0.004606 1.286720
v 1.455942 0.158779 1.351255
v 1.488098 0.155168 1.351255
v -1.473399 0.158771 -1.351255
v -1.537353 0.147957 -1.392887
v -1.586668 0.147957 -1.392887
v -1.522391 0.158771 -1.351255
v 1.455942 0.158779 -1.351255
v -1.422274 0.158780 -1.351255
v -1.447837 0.158780 -1.329350
v 1.443670 0.014822 -1.317902
v 1.443670 0.147533 -1.317902
v 1.452880 0.147969 -1.392887
v 1.457077 0.004606 1.351056
v 1.489233 0.008168 1.351056
v -1.421139 0.004606 1.351056
v -1.446702 0.004606 1.329154
v -1.447837 0.158780 1.329350
v -1.422275 0.158779 1.351254
v -1.521257 0.004606 1.329154
v -1.521257 0.004606 1.286720
v -1.522392 0.158780 1.286909
v -1.522392 0.158780 1.329350
v -1.501758 0.014822 1.361365
v -1.485893 0.014387 1.392887
v -1.501758 0.014823 -1.361364
v -1.576313 0.014823 -1.361364
v -1.576313 0.014823 -1.317902
v -1.522391 0.158780 -1.329350
v -1.522391 0.158780 -1.286910
v -1.446702 0.004606 -1.329154
v -1.501758 0.147533 -1.361365
v -1.576313 0.147533 -1.317902
v -1.576313 0.147533 -1.361365
v -1.521257 0.004607 -1.286720
v -1.521257 0.004606 -1.329154
v -1.547954 0.158780 -1.265005
v -1.547955 0.158780 1.265004
v -1.546819 0.004606 1.264819
v -1.546819 0.004607 -1.264817
v -1.612398 0.147957 -1.349139
v -1.547954 0.158771 -1.308815
v -1.547954 0.158771 -1.329350
v -1.612398 0.147957 -1.370307
v -1.547955 0.158780 1.308814
v -1.612399 0.147972 1.349139
v -1.612399 0.147972 1.370307
v -1.547955 0.158780 1.329350
v -1.546819 0.004587 -1.308622
v -1.612398 0.014399 -1.349139
v -1.612398 0.014399 -1.370307
v -1.546819 0.004587 -1.329154
v -1.612399 0.147969 1.303978
v -1.612398 0.147969 -1.303978
v -1.612398 0.014387 -1.303978
v -1.612398 0.014387 1.303979
v -1.576313 0.014822 1.317902
v -1.576313 0.014822 1.361365
v -1.485893 0.147969 -1.392887
v -1.612398 0.014415 1.349140
v -1.546819 0.004648 1.308623
v -1.546819 0.004648 1.329154
v -1.612398 0.014415 1.370307
v -1.472264 0.004648 1.351056
v -1.537353 0.014415 1.392887
v -1.586668 0.014415 1.392887
v -1.521257 0.004648 1.351056
v -1.537353 0.014399 -1.392887
v -1.472265 0.004587 -1.351056
v -1.521257 0.004587 -1.351056
v -1.586668 0.014399 -1.392887
vt 0.416100 0.547800
vt 0.416100 0.043400
vt 0.420000 0.043400
vt 0.420000 0.547800
vt 0.583300 0.547800
vt 0.579400 0.547800
vt 0.579400 0.043400
vt 0.583300 0.043400
vt 0.974100 0.033000
vt 0.587900 0.033000
vt 0.586700 0.018000
vt 0.972000 0.018000
vt 0.974100 0.024300
vt 0.023900 0.291400
vt 0.023900 0.359300
vt 0.013600 0.359600
vt 0.013600 0.291200
vt 0.566300 0.037300
vt 0.566300 0.553900
vt 0.579400 0.560400
vt 0.568800 0.563400
vt 0.024300 0.579400
vt 0.032800 0.571100
vt 0.026300 0.571100
vt 0.017800 0.579400
vt 0.540400 0.600500
vt 0.540400 0.724000
vt 0.006600 0.724000
vt 0.006600 0.600500
vt 0.434200 0.037300
vt 0.431600 0.027800
vt 0.568800 0.027800
vt 0.983900 0.024300
vt 0.983900 0.033000
vt 0.434200 0.553900
vt 0.958400 0.572600
vt 0.966900 0.581000
vt 0.579000 0.581000
vt 0.578400 0.572600
vt 0.431600 0.563400
vt 0.420000 0.560400
vt 0.036200 0.041900
vt 0.036200 0.558200
vt 0.419500 0.558200
vt 0.419500 0.041900
vt 0.961700 0.559700
vt 0.578400 0.559700
vt 0.578400 0.043600
vt 0.961700 0.043600
vt 0.416100 0.030800
vt 0.420000 0.030800
vt 0.032800 0.029000
vt 0.024300 0.020700
vt 0.017800 0.020700
vt 0.026300 0.029000
vt 0.419500 0.029000
vt 0.039500 0.029000
vt 0.036200 0.033400
vt 0.992000 0.598500
vt 0.992000 0.737500
vt 0.554800 0.737500
vt 0.554800 0.598500
vt 0.977100 0.350000
vt 0.977100 0.282100
vt 0.987500 0.281900
vt 0.987500 0.350200
vt 0.569900 0.941400
vt 0.569900 0.800600
vt 0.994500 0.800600
vt 0.994500 0.941400
vt 0.572700 0.022600
vt 0.583300 0.030800
vt 0.579400 0.030800
vt 0.427800 0.022600
vt 0.578400 0.030700
vt 0.958400 0.030700
vt 0.961700 0.035100
vt 0.036200 0.566700
vt 0.039500 0.571100
vt 0.419500 0.571100
vt 0.971600 0.035100
vt 0.971600 0.043600
vt 0.026300 0.558200
vt 0.026300 0.566700
vt 0.587900 0.033000
vt 0.974100 0.033000
vt 0.974100 0.024300
vt 0.972000 0.018000
vt 0.586700 0.018000
vt 0.974100 0.565400
vt 0.974100 0.574100
vt 0.983900 0.574100
vt 0.983900 0.565400
vt 0.427800 0.568600
vt 0.416100 0.560400
vt 0.583300 0.560400
vt 0.572700 0.568600
vt 0.026300 0.033400
vt 0.026300 0.041900
vt 0.961700 0.568200
vt 0.587900 0.565400
vt 0.586700 0.580300
vt 0.972000 0.580300
vt 0.974100 0.574100
vt 0.974100 0.565400
vt 0.983900 0.565400
vt 0.983900 0.574100
vt 0.971600 0.559700
vt 0.971600 0.568200
vt 0.022900 0.046300
vt 0.022900 0.553800
vt 0.975000 0.048000
vt 0.975000 0.555300
vt 0.014400 0.029500
vt 0.022900 0.037500
vt 0.022900 0.033400
vt 0.014400 0.025200
vt 0.022900 0.562600
vt 0.014400 0.570700
vt 0.014400 0.574900
vt 0.022900 0.566700
vt 0.975000 0.564100
vt 0.983600 0.572300
vt 0.983600 0.576500
vt 0.975000 0.568200
vt 0.988600 0.035700
vt 0.988600 0.562600
vt 0.983600 0.563200
vt 0.983600 0.040100
vt 0.014400 0.038500
vt 0.014400 0.561600
vt 0.988600 0.562600
vt 0.988600 0.035700
vt 0.983900 0.033000
vt 0.983900 0.024300
vt 0.031100 0.020700
vt 0.419100 0.020700
vt 0.983600 0.031100
vt 0.975000 0.039200
vt 0.975000 0.035100
vt 0.983600 0.026800
vt 0.965100 0.030700
vt 0.973700 0.022300
vt 0.980200 0.022300
vt 0.971600 0.030700
vt 0.587900 0.565400
vt 0.972000 0.580300
vt 0.586700 0.580300
vt 0.973700 0.581000
vt 0.965100 0.572600
vt 0.971600 0.572600
vt 0.980200 0.581000
vt 0.966900 0.022300
vt 0.579000 0.022300
vt 0.978800 0.018000
vt 0.978800 0.018000
vt 0.978800 0.580300
vt 0.978800 0.580300
vt 0.988600 0.571600
vt 0.988600 0.571600
vt 0.988600 0.026700
vt 0.988600 0.026700
vt 0.985200 0.018000
vt 0.988600 0.022500
vt 0.985200 0.018000
vt 0.988600 0.022500
vt 0.985200 0.580300
vt 0.988600 0.575800
vt 0.988600 0.575800
vt 0.985200 0.580300
vt 0.031100 0.579400
vt 0.419100 0.579400
vn 0.1116 0.9938 -0.0000
vn 0.1101 -0.9939 -0.0000
vn 0.0000 -1.0000 0.0078
vn -0.9866 -0.0000 0.1635
vn 0.2668 -0.9637 -0.0000
vn 0.2900 -0.9565 -0.0332
vn 0.0000 0.9679 0.2513
vn 0.0000 0.9679 0.2514
vn -1.0000 -0.0000 -0.0000
vn 0.9037 -0.0000 0.4283
vn -0.0000 -1.0000 -0.0000
vn 0.2801 0.9600 0.0000
vn 1.0000 -0.0000 0.0000
vn 0.0002 -0.9736 -0.2283
vn -0.0001 -0.9738 -0.2274
vn -0.0000 -0.9737 -0.2277
vn 0.3045 0.9518 -0.0359
vn 0.0000 1.0000 -0.0000
vn 0.0002 0.9679 -0.2515
vn -0.0003 0.9680 -0.2511
vn 0.0000 0.9679 -0.2514
vn -0.0003 1.0000 -0.0002
vn -0.0002 1.0000 -0.0006
vn 0.0000 -0.0000 1.0000
vn -0.9925 -0.0000 -0.1219
vn 0.0000 -0.0000 -1.0000
vn 0.1584 -0.9473 0.2785
vn 0.1653 0.9388 0.3022
vn 0.4231 0.0000 0.9061
vn -0.0020 -1.0000 0.0015
vn -0.0008 -1.0000 0.0030
vn -0.0008 -1.0000 0.0009
vn -0.0034 -1.0000 -0.0002
vn 0.3093 0.9500 0.0430
vn 0.2947 -0.9547 0.0400
vn 0.0000 1.0000 0.0078
vn 0.1601 0.9410 -0.2982
vn 0.1533 -0.9493 -0.2744
vn 0.4093 0.0000 -0.9124
vn -0.0002 1.0000 -0.0002
vn -0.0006 1.0000 0.0001
vn 0.0001 -1.0000 0.0014
vn 0.0008 -1.0000 0.0007
vn 0.0000 1.0000 -0.0058
vn 0.0015 -1.0000 -0.0001
vn 0.0004 -1.0000 0.0004
vn -0.0005 1.0000 -0.0004
vn 0.9198 -0.0000 -0.3925
vn -0.0021 -1.0000 0.0017
vn 0.0010 -1.0000 0.0008
vn -0.1654 0.9862 -0.0001
vn -0.1654 0.9862 -0.0002
vn -0.1655 0.9862 -0.0000
vn -0.1654 0.9862 -0.0000
vn -0.1478 -0.9890 0.0001
vn -0.1479 -0.9890 0.0000
vn -0.1480 -0.9890 -0.0000
vn -0.0090 -1.0000 -0.0000
vn -0.1474 -0.9891 -0.0000
vn -0.1481 -0.9890 0.0001
vn -0.1464 -0.9892 0.0012
vn -0.1479 -0.9890 -0.0004
vn -0.1655 0.9862 0.0001
vn -0.0090 1.0000 0.0000
vn 0.0002 0.9679 -0.2514
vn 0.0000 0.9679 -0.2513
vn -0.1466 -0.9892 0.0012
vn -0.1476 -0.9890 -0.0005
vn -0.1473 -0.9891 -0.0000
vn 0.0007 -0.9738 0.2276
vn -0.0013 -0.9741 0.2263
vn 0.0000 -0.9738 0.2274
vn 0.0000 -1.0000 -0.0058
vn 0.0000 -0.9736 -0.2283
vn 0.0001 -0.9736 -0.2282
vn 0.0000 -0.9736 -0.2284
vn 0.0007 -0.9737 0.2279
vn -0.0013 -0.9741 0.2262
vn -0.0000 -0.9737 0.2277
vn -0.0020 -1.0000 0.0003
vn -0.0001 -0.9999 0.0139
vn -0.0000 -0.9999 0.0139
vn 0.0004 0.9999 0.0133
vn 0.0013 0.9999 0.0140
vn 0.0005 0.9999 0.0136
vn -0.0004 1.0000 -0.0000
vn 0.0008 -1.0000 0.0002
vn 0.0001 -0.9999 -0.0136
vn 0.0005 -0.9999 -0.0138
vn 0.0002 -0.9999 -0.0137
vn 0.0005 0.9999 -0.0138
vn 0.0001 0.9999 -0.0136
vn 0.0002 0.9999 -0.0137
vn -0.0000 1.0000 -0.0002
vn -0.0002 -1.0000 0.0008
vn 0.0004 -1.0000 0.0017
vn -0.0120 -0.9999 0.0003
vn -0.0123 -0.9999 0.0004
vn -0.0113 -0.9999 -0.0002
vn -0.0113 0.9999 -0.0002
vn -0.0123 0.9999 0.0004
vn -0.0120 0.9999 0.0003
vn -0.0121 -0.9999 0.0000
vn -0.0122 -0.9999 0.0000
vn -0.0121 -0.9999 0.0001
vn -0.0118 0.9999 -0.0006
vn -0.0126 0.9999 -0.0010
vn -0.0105 0.9999 0.0005
vn -0.0040 -1.0000 0.0024
vn -0.0011 -1.0000 0.0031
vn -0.0095 -0.9999 0.0108
vn -0.0088 0.9999 0.0100
vn -0.0000 1.0000 -0.0006
vn -0.0008 1.0000 -0.0004
vn 0.0006 -1.0000 0.0013
vn 0.0018 -1.0000 0.0008
vn -0.0092 -0.9999 -0.0104
vn -0.0092 0.9999 -0.0104
vn 0.0000 -0.9999 -0.0135
vn 0.0000 0.9999 -0.0135
vn -0.0113 0.9999 0.0000
vn -0.0854 -0.9915 0.0985
vn -0.0955 0.9893 0.1101
vn -0.0858 -0.9914 -0.0990
vn -0.0955 0.9893 -0.1102
vn -0.0118 -0.9999 -0.0000
vn -0.0118 0.9999 0.0000
vn 0.0000 0.9999 0.0129
usemtl Material
s 1
f 1/1/1 2/2/1 3/3/1 4/4/1
f 5/5/2 6/6/2 7/7/2 8/8/2
f 9/9/3 10/10/3 11/11/3 12/12/3 13/13/3
f 10/14/4 14/15/4 15/16/4 11/17/4
f 16/18/5 7/7/5 6/6/5 17/19/5
f 17/19/6 6/6/6 18/20/6 19/21/6
f 20/22/7 21/23/8 22/24/7 23/25/7
f 24/26/9 25/27/9 26/28/9 9/29/9
f 16/18/10 27/30/10 28/31/10 29/32/10
f 9/9/11 13/13/11 30/33/11 31/34/11
f 3/3/12 27/30/12 32/35/12 4/4/12
f 27/30/13 16/18/13 17/19/13 32/35/13
f 33/36/14 34/37/15 35/38/16 36/39/16
f 4/4/17 32/35/17 37/40/17 38/41/17
f 39/42/18 40/43/18 2/44/18 1/45/18
f 41/46/11 5/47/11 8/48/11 42/49/11
f 3/3/1 2/2/1 43/50/1 44/51/1
f 45/52/19 46/53/20 47/54/21 48/55/21
f 39/42/18 1/45/18 49/56/18 50/57/22 51/58/23
f 9/59/24 26/60/24 14/61/24 10/62/24
f 52/63/25 53/64/25 54/65/25 35/66/25
f 25/67/26 24/68/26 53/69/26 52/70/26
f 15/71/27 55/72/27 56/73/27 29/32/27
f 43/50/28 11/74/28 28/31/28 44/51/28
f 11/74/29 15/71/29 29/32/29 28/31/29
f 42/49/11 8/48/11 55/75/11 57/76/30 58/77/31
f 2/44/18 40/43/18 59/78/18 60/79/18 43/80/18
f 42/49/11 58/77/31 61/81/32 62/82/33
f 27/30/34 3/3/34 44/51/34 28/31/34
f 7/7/35 16/18/35 29/32/35 56/73/35
f 8/8/2 7/7/2 56/73/2 55/72/2
f 59/78/18 40/43/18 63/83/18 64/84/18
f 14/85/36 26/86/36 65/87/36 66/88/36 15/89/36
f 25/90/18 67/91/18 68/92/18 69/93/18
f 54/94/37 49/95/37 38/41/37 37/40/37
f 36/96/38 35/97/38 19/21/38 18/20/38
f 35/97/39 54/94/39 37/40/39 19/21/39
f 39/42/18 51/58/23 70/98/40 71/99/41
f 5/47/11 41/46/11 72/100/42 33/36/43 36/39/11
f 25/90/44 52/101/44 35/102/44 34/103/44 67/91/44
f 1/1/1 4/4/1 38/41/1 49/95/1
f 73/104/11 24/105/11 74/106/11 75/107/11
f 72/100/42 41/46/11 76/108/45 77/109/46
f 40/43/18 39/42/18 71/99/41 78/110/47 79/111/18 63/83/18
f 32/35/48 17/19/48 19/21/48 37/40/48
f 6/6/2 5/5/2 36/96/2 18/20/2
f 41/46/11 42/49/11 62/82/33 80/112/49 81/113/50 76/108/45
f 82/114/51 83/115/52 84/116/53 85/117/53
f 86/118/54 87/119/54 88/120/54 89/121/54
f 90/122/55 91/123/56 92/124/57 93/125/57
f 24/105/58 9/9/58 31/34/58 94/126/58 95/127/58 74/106/58
f 96/128/59 81/113/60 80/112/61 97/129/62
f 78/110/51 95/130/63 94/131/53 79/111/54
f 26/86/64 25/90/64 69/93/64 96/132/64 97/133/64 98/134/64
f 65/87/18 26/86/18 98/134/18 99/135/18
f 100/136/65 50/57/20 49/56/66 54/137/66
f 101/138/67 102/139/68 103/140/69 104/141/69
f 105/142/70 106/143/71 107/144/72 108/145/72
f 53/146/73 24/105/73 73/104/73 100/147/73 54/148/73
f 109/149/74 110/150/75 111/151/76 112/152/76
f 66/153/77 57/76/78 55/75/79 15/154/79
f 59/78/18 21/23/18 60/79/18
f 57/76/30 105/142/80 58/77/31
f 12/12/81 20/155/82 13/13/82
f 65/87/83 106/156/84 66/88/85
f 50/57/22 45/52/86 51/58/23
f 72/100/42 110/150/87 33/36/43
f 73/104/88 46/157/89 100/147/90
f 109/158/91 67/91/92 34/103/93
f 71/99/41 83/115/94 78/110/47
f 79/111/18 86/118/18 63/83/18
f 81/113/50 90/122/95 76/108/45
f 62/82/33 102/139/96 80/112/49
f 95/127/97 82/159/98 74/106/99
f 69/93/100 91/160/101 96/132/102
f 31/34/103 87/161/104 94/126/105
f 97/133/106 101/162/107 98/134/108
f 89/121/18 22/24/18 64/84/18
f 61/81/32 108/145/109 103/140/110
f 30/33/111 23/163/111 88/164/111
f 107/165/112 99/135/112 104/166/112
f 84/116/113 70/98/40 48/55/114
f 93/125/115 111/151/116 77/109/46
f 47/167/117 75/107/117 85/168/117
f 92/169/118 68/92/118 112/170/118
f 47/167/119 46/157/89 73/104/88 75/107/119
f 109/158/91 112/170/120 68/92/120 67/91/92
f 106/143/71 105/142/70 57/76/78 66/153/77
f 12/171/8 60/79/7 21/23/8 20/22/7
f 34/37/15 33/36/14 110/150/75 109/149/74
f 46/53/20 45/52/19 50/57/20 100/136/65
f 91/123/56 90/122/55 81/113/60 96/128/59
f 97/129/62 80/112/61 102/139/68 101/138/67
f 95/130/63 78/110/51 83/115/52 82/114/51
f 87/119/54 86/118/54 79/111/54 94/131/53
f 84/116/113 83/115/94 71/99/41 70/98/40
f 101/162/107 104/166/121 99/135/121 98/134/108
f 104/141/122 103/140/122 108/145/122 107/144/122
f 23/25/123 22/24/123 89/121/123 88/120/123
f 88/164/104 87/161/104 31/34/103 30/33/104
f 103/140/110 102/139/96 62/82/33 61/81/32
f 86/118/18 89/121/18 64/84/18 63/83/18
f 112/152/124 111/151/124 93/125/124 92/124/124
f 85/117/125 84/116/125 48/55/125 47/54/125
f 75/107/126 74/106/99 82/159/98 85/168/126
f 77/109/46 76/108/45 90/122/95 93/125/115
f 69/93/100 68/92/127 92/169/127 91/160/101
f 107/165/128 106/156/84 65/87/83 99/135/128
f 45/52/86 48/55/114 70/98/40 51/58/23
f 22/24/18 21/23/18 59/78/18 64/84/18
f 105/142/80 108/145/109 61/81/32 58/77/31
f 20/155/82 23/163/82 30/33/82 13/13/82
f 72/100/42 77/109/46 111/151/116 110/150/87
f 60/79/7 12/171/8 11/172/7 43/80/7
