# Blender v2.79 (sub 0) OBJ File: ''
# www.blender.org
mtllib chips.mtl
o Chips
v 0.757777 0.000000 -0.204520
v 0.757777 5.358606 -0.204519
v 0.784703 5.358606 0.000001
v 0.784703 0.000000 0.000000
v 0.678836 0.000000 -0.395102
v 0.678836 5.358606 -0.395101
v 0.553258 0.000000 -0.558758
v 0.553258 5.358606 -0.558757
v 0.389601 0.000000 -0.684335
v 0.389601 5.358606 -0.684334
v 0.199021 0.000000 -0.763278
v 0.199021 5.358606 -0.763277
v -0.005499 0.000000 -0.790202
v -0.005499 5.358606 -0.790201
v -0.210019 0.000000 -0.763278
v -0.210019 5.358606 -0.763277
v -0.400599 0.000000 -0.684335
v -0.400599 5.358606 -0.684334
v -0.564257 0.000000 -0.558758
v -0.564257 5.358606 -0.558757
v -0.689835 0.000000 -0.395102
v -0.689835 5.358606 -0.395101
v -0.768775 0.000000 -0.204520
v -0.768775 5.358606 -0.204519
v -0.795701 0.000000 0.000000
v -0.795701 5.358606 0.000001
v -0.768775 -0.000000 0.204518
v -0.768775 5.358606 0.204519
v -0.689835 -0.000000 0.395100
v -0.689835 5.358606 0.395101
v -0.564257 -0.000000 0.558756
v -0.564257 5.358606 0.558757
v -0.400601 -0.000000 0.684333
v -0.400601 5.358606 0.684334
v -0.210019 -0.000000 0.763276
v -0.210019 5.358606 0.763277
v -0.005499 -0.000000 0.790202
v -0.005499 5.358606 0.790203
v 0.199019 -0.000000 0.763276
v 0.199019 5.358606 0.763277
v 0.389601 -0.000000 0.684335
v 0.389601 5.358606 0.684336
v 0.553258 -0.000000 0.558758
v 0.553258 5.358606 0.558759
v 0.678836 -0.000000 0.395100
v 0.678836 5.358606 0.395101
v 0.757777 -0.000000 0.204520
v 0.757777 5.358606 0.204521
v 0.806518 5.485747 0.000001
v 0.778849 5.485747 -0.210166
v 0.778849 5.603423 -0.210166
v 0.806518 5.603423 0.000001
v 0.697729 5.485747 -0.406009
v 0.697729 5.603423 -0.406009
v 0.568684 5.485747 -0.574182
v 0.568684 5.603423 -0.574182
v 0.400510 5.485747 -0.703227
v 0.400510 5.603423 -0.703227
v 0.204666 5.485747 -0.784347
v 0.204666 5.603423 -0.784349
v -0.005499 5.485747 -0.812016
v -0.005499 5.603423 -0.812018
v -0.215664 5.485747 -0.784347
v -0.215664 5.603423 -0.784349
v -0.411509 5.485747 -0.703227
v -0.411509 5.603423 -0.703227
v -0.579682 5.485747 -0.574182
v -0.579682 5.603423 -0.574182
v -0.708727 5.485747 -0.406009
v -0.708727 5.603423 -0.406009
v -0.789847 5.485747 -0.210166
v -0.789847 5.603423 -0.210166
v -0.817516 5.485747 0.000001
v -0.817516 5.603423 0.000001
v -0.789847 5.485745 0.210166
v -0.789847 5.603423 0.210166
v -0.708727 5.485745 0.406008
v -0.708727 5.603423 0.406008
v -0.579682 5.485745 0.574184
v -0.579682 5.603423 0.574182
v -0.411509 5.485745 0.703229
v -0.411509 5.603423 0.703229
v -0.215666 5.485745 0.784349
v -0.215666 5.603423 0.784349
v -0.005499 5.485745 0.812018
v -0.005499 5.603423 0.812018
v 0.204666 5.485745 0.784349
v 0.204666 5.603423 0.784349
v 0.400508 5.485745 0.703229
v 0.400508 5.603423 0.703229
v 0.568684 5.485745 0.574184
v 0.568684 5.603423 0.574184
v 0.697729 5.485745 0.406010
v 0.697729 5.603423 0.406010
v 0.778849 5.485745 0.210166
v 0.778849 5.603423 0.210166
v 0.633403 5.625247 -0.171194
v 0.567325 5.625247 -0.330719
v 0.462210 5.625247 -0.467709
v 0.325221 5.625247 -0.572823
v 0.165694 5.625247 -0.638901
v -0.005499 5.625247 -0.661440
v -0.176692 5.625247 -0.638901
v -0.336219 5.625247 -0.572823
v -0.473209 5.625247 -0.467709
v -0.578323 5.625247 -0.330719
v -0.644402 5.625247 -0.171194
v -0.666940 5.625245 0.000001
v -0.644402 5.625245 0.171194
v -0.578323 5.625245 0.330721
v -0.473209 5.625245 0.467708
v -0.336219 5.625245 0.572825
v -0.176692 5.625245 0.638903
v -0.005499 5.625245 0.661441
v 0.165694 5.625245 0.638903
v 0.325221 5.625245 0.572825
v 0.462210 5.625245 0.467710
v 0.567325 5.625245 0.330721
v 0.633403 5.625245 0.171194
v 0.655941 5.625245 0.000001
v 0.726848 5.522673 -0.196232
v 0.752683 5.522673 0.000001
v 0.651105 5.522673 -0.379090
v 0.530616 5.522673 -0.536116
v 0.373592 5.522673 -0.656603
v 0.190733 5.522673 -0.732346
v -0.005499 5.522673 -0.758181
v -0.201732 5.522673 -0.732346
v -0.384590 5.522673 -0.656605
v -0.541614 5.522673 -0.536116
v -0.662104 5.522673 -0.379090
v -0.737847 5.522673 -0.196232
v -0.763681 5.522673 0.000001
v -0.737847 5.522673 0.196231
v -0.662104 5.522673 0.379092
v -0.541616 5.522673 0.536116
v -0.384590 5.522673 0.656605
v -0.201732 5.522673 0.732348
v -0.005499 5.522673 0.758183
v 0.190731 5.522673 0.732348
v 0.373592 5.522673 0.656605
v 0.530616 5.522673 0.536116
v 0.651105 5.522673 0.379092
v 0.726848 5.522673 0.196233
vt 0.888700 0.716600
vt 0.903900 0.707800
vt 0.920900 0.703200
vt 0.938500 0.703100
vt 0.955500 0.707600
vt 0.970700 0.716400
vt 0.983200 0.728800
vt 0.992000 0.744000
vt 0.996600 0.761000
vt 0.996700 0.778600
vt 0.992200 0.795600
vt 0.983400 0.810800
vt 0.971000 0.823300
vt 0.955800 0.832100
vt 0.938800 0.836700
vt 0.921200 0.836800
vt 0.904200 0.832300
vt 0.888900 0.823500
vt 0.876500 0.811100
vt 0.867600 0.795900
vt 0.863000 0.778900
vt 0.863000 0.761300
vt 0.867500 0.744300
vt 0.876300 0.729100
vt 0.151400 0.012100
vt 0.151400 0.938900
vt 0.116100 0.938900
vt 0.116100 0.012100
vt 0.186700 0.012100
vt 0.186700 0.938900
vt 0.222000 0.012100
vt 0.222000 0.938900
vt 0.257300 0.012100
vt 0.257300 0.938900
vt 0.292600 0.012100
vt 0.292600 0.938900
vt 0.327900 0.012100
vt 0.327900 0.938900
vt 0.363200 0.012100
vt 0.363200 0.938900
vt 0.398500 0.012000
vt 0.398500 0.938900
vt 0.433800 0.012000
vt 0.433800 0.938900
vt 0.469200 0.012000
vt 0.469200 0.938900
vt 0.504500 0.012000
vt 0.504500 0.938900
vt 0.539800 0.012000
vt 0.539800 0.938900
vt 0.575100 0.012000
vt 0.575100 0.938900
vt 0.610400 0.012000
vt 0.610400 0.938800
vt 0.645900 0.012000
vt 0.645600 0.938800
vt 0.681600 0.012000
vt 0.680800 0.938900
vt 0.717300 0.012100
vt 0.716000 0.938900
vt 0.753000 0.012100
vt 0.751200 0.939000
vt 0.788700 0.012200
vt 0.786400 0.939000
vt 0.824400 0.012500
vt 0.821700 0.939200
vt 0.860100 0.012700
vt 0.857200 0.939700
vt 0.045400 0.012100
vt 0.045500 0.938900
vt 0.010000 0.938900
vt 0.009800 0.012100
vt 0.080800 0.012100
vt 0.080800 0.938900
vt 0.989300 0.604000
vt 0.993800 0.620500
vt 0.993900 0.637700
vt 0.989500 0.654200
vt 0.980900 0.669100
vt 0.968900 0.681200
vt 0.954100 0.689800
vt 0.937500 0.694300
vt 0.920400 0.694300
vt 0.903900 0.689900
vt 0.889000 0.681400
vt 0.876900 0.669300
vt 0.868300 0.654500
vt 0.863800 0.638000
vt 0.863800 0.620900
vt 0.868200 0.604300
vt 0.876700 0.589500
vt 0.888800 0.577400
vt 0.903600 0.568800
vt 0.920100 0.564300
vt 0.937200 0.564200
vt 0.953700 0.568600
vt 0.968600 0.577100
vt 0.980700 0.589200
vt 0.774300 0.973800
vt 0.811000 0.973800
vt 0.811000 0.994200
vt 0.774300 0.994200
vt 0.847600 0.973800
vt 0.847600 0.994200
vt 0.884300 0.973800
vt 0.884300 0.994200
vt 0.004600 0.973800
vt 0.041300 0.973800
vt 0.041300 0.994200
vt 0.004600 0.994200
vt 0.077900 0.973800
vt 0.077900 0.994200
vt 0.114600 0.973800
vt 0.114600 0.994200
vt 0.151300 0.973800
vt 0.151300 0.994200
vt 0.187900 0.973800
vt 0.187900 0.994200
vt 0.224600 0.973800
vt 0.224600 0.994200
vt 0.261200 0.973800
vt 0.261200 0.994200
vt 0.297900 0.973800
vt 0.297900 0.994200
vt 0.334500 0.973800
vt 0.334500 0.994200
vt 0.371200 0.973800
vt 0.371200 0.994200
vt 0.407800 0.973800
vt 0.407800 0.994200
vt 0.444500 0.973800
vt 0.444500 0.994200
vt 0.481100 0.973800
vt 0.481100 0.994200
vt 0.517700 0.973800
vt 0.517700 0.994200
vt 0.554400 0.973800
vt 0.554400 0.994200
vt 0.591000 0.973800
vt 0.591000 0.994200
vt 0.627700 0.973800
vt 0.627700 0.994200
vt 0.664300 0.973800
vt 0.664300 0.994200
vt 0.701000 0.973800
vt 0.701000 0.994200
vt 0.737600 0.973800
vt 0.737600 0.994200
vt 0.895900 0.866900
vt 0.908300 0.859700
vt 0.922100 0.855900
vt 0.936500 0.855900
vt 0.950300 0.859600
vt 0.962800 0.866700
vt 0.972900 0.876800
vt 0.980100 0.889200
vt 0.983900 0.903000
vt 0.983900 0.917300
vt 0.980200 0.931200
vt 0.973100 0.943600
vt 0.963000 0.953800
vt 0.950600 0.961000
vt 0.936800 0.964700
vt 0.922400 0.964800
vt 0.908600 0.961100
vt 0.896200 0.954000
vt 0.886000 0.943900
vt 0.878800 0.931500
vt 0.875100 0.917600
vt 0.875000 0.903300
vt 0.878700 0.889500
vt 0.885800 0.877000
vt 0.151400 0.967800
vt 0.116100 0.967800
vt 0.186700 0.967800
vt 0.222000 0.967800
vt 0.257300 0.967800
vt 0.292600 0.967800
vt 0.327900 0.967800
vt 0.363200 0.967800
vt 0.398600 0.967800
vt 0.433900 0.967800
vt 0.469200 0.967800
vt 0.504500 0.967800
vt 0.539800 0.967800
vt 0.575100 0.967800
vt 0.610300 0.967800
vt 0.645600 0.967700
vt 0.680700 0.967800
vt 0.715900 0.967800
vt 0.751100 0.967800
vt 0.786200 0.967900
vt 0.821100 0.968100
vt 0.855700 0.968900
vt 0.045600 0.967800
vt 0.010800 0.967800
vt 0.080800 0.967800
vt 0.888300 0.857000
vt 0.875900 0.869400
vt 0.903500 0.848100
vt 0.920500 0.843500
vt 0.938100 0.843500
vt 0.955100 0.848000
vt 0.970300 0.856800
vt 0.982800 0.869200
vt 0.991700 0.884400
vt 0.996200 0.901400
vt 0.996300 0.918900
vt 0.991800 0.935900
vt 0.983000 0.951200
vt 0.970600 0.963700
vt 0.955400 0.972500
vt 0.938400 0.977100
vt 0.920800 0.977200
vt 0.903800 0.972700
vt 0.888600 0.963900
vt 0.876100 0.951500
vt 0.867300 0.936300
vt 0.862700 0.919300
vt 0.862600 0.901700
vt 0.867100 0.884700
vn 0.0000 -1.0000 0.0000
vn 0.9659 0.0000 -0.2588
vn 0.9615 0.0955 -0.2576
vn 0.9954 0.0955 0.0000
vn 1.0000 -0.0000 0.0000
vn 0.8660 0.0000 -0.5000
vn 0.8621 0.0955 -0.4977
vn 0.7071 0.0000 -0.7071
vn 0.7039 0.0955 -0.7039
vn 0.5000 0.0000 -0.8660
vn 0.4977 0.0955 -0.8621
vn 0.2588 0.0000 -0.9659
vn 0.2576 0.0955 -0.9615
vn -0.0000 0.0000 -1.0000
vn -0.0000 0.0955 -0.9954
vn -0.2588 0.0000 -0.9659
vn -0.2576 0.0955 -0.9615
vn -0.5000 0.0000 -0.8660
vn -0.4977 0.0955 -0.8621
vn -0.7071 0.0000 -0.7071
vn -0.7039 0.0955 -0.7039
vn -0.8660 0.0000 -0.5000
vn -0.8621 0.0955 -0.4977
vn -0.9659 0.0000 -0.2588
vn -0.9615 0.0955 -0.2576
vn -1.0000 0.0000 0.0000
vn -0.9954 0.0955 0.0000
vn -0.9659 -0.0000 0.2588
vn -0.9615 0.0955 0.2576
vn -0.8660 -0.0000 0.5000
vn -0.8621 0.0955 0.4977
vn -0.7071 -0.0000 0.7071
vn -0.7039 0.0955 0.7039
vn -0.5000 -0.0000 0.8660
vn -0.4977 0.0955 0.8621
vn -0.2588 -0.0000 0.9659
vn -0.2576 0.0955 0.9615
vn 0.0000 -0.0000 1.0000
vn 0.0000 0.0955 0.9954
vn 0.2588 -0.0000 0.9659
vn 0.2576 0.0955 0.9615
vn 0.5000 -0.0000 0.8660
vn 0.4977 0.0955 0.8621
vn 0.7071 -0.0000 0.7071
vn 0.7039 0.0955 0.7039
vn 0.8660 -0.0000 0.5000
vn 0.8621 0.0955 0.4977
vn 0.9659 -0.0000 0.2588
vn 0.9615 0.0955 0.2576
vn 0.7512 0.6287 -0.2012
vn 0.7777 0.6287 0.0000
vn 0.6735 0.6287 -0.3888
vn 0.5500 0.6287 -0.5498
vn 0.3888 0.6287 -0.6735
vn 0.2012 0.6287 -0.7512
vn 0.0002 0.6287 -0.7777
vn -0.2012 0.6287 -0.7512
vn -0.3887 0.6287 -0.6735
vn -0.5498 0.6287 -0.5499
vn -0.6736 0.6287 -0.3887
vn -0.7511 0.6287 -0.2014
vn -0.7777 0.6287 -0.0002
vn -0.7511 0.6287 0.2013
vn -0.6735 0.6287 0.3888
vn -0.5499 0.6287 0.5499
vn -0.3889 0.6287 0.6734
vn -0.2013 0.6287 0.7512
vn -0.0000 0.6287 0.7777
vn 0.2013 0.6287 0.7512
vn 0.3889 0.6287 0.6734
vn 0.5500 0.6287 0.5498
vn 0.6735 0.6287 0.3888
vn 0.7512 0.6287 0.2012
vn 0.0752 0.9970 -0.0201
vn 0.0674 0.9970 -0.0389
vn 0.0551 0.9970 -0.0551
vn 0.0389 0.9970 -0.0674
vn 0.0202 0.9970 -0.0752
vn 0.0000 0.9970 -0.0779
vn -0.0202 0.9970 -0.0752
vn -0.0389 0.9970 -0.0674
vn -0.0551 0.9970 -0.0551
vn -0.0674 0.9970 -0.0389
vn -0.0752 0.9970 -0.0201
vn -0.0779 0.9970 -0.0000
vn -0.0752 0.9970 0.0202
vn -0.0674 0.9970 0.0389
vn -0.0551 0.9970 0.0551
vn -0.0389 0.9970 0.0674
vn -0.0201 0.9970 0.0752
vn -0.0000 0.9970 0.0779
vn 0.0201 0.9970 0.0752
vn 0.0389 0.9970 0.0674
vn 0.0551 0.9970 0.0551
vn 0.0674 0.9970 0.0389
vn 0.0752 0.9970 0.0202
vn 0.0779 0.9970 -0.0000
vn 0.9480 0.1916 -0.2540
vn 0.9815 0.1916 0.0000
vn 0.8500 0.1916 -0.4907
vn 0.6940 0.1916 -0.6940
vn 0.4907 0.1916 -0.8500
vn 0.2540 0.1916 -0.9480
vn -0.0000 0.1916 -0.9815
vn -0.2540 0.1916 -0.9480
vn -0.4907 0.1915 -0.8500
vn -0.6940 0.1916 -0.6940
vn -0.8500 0.1916 -0.4907
vn -0.9480 0.1916 -0.2540
vn -0.9815 0.1916 -0.0000
vn -0.9480 0.1915 0.2540
vn -0.8500 0.1916 0.4907
vn -0.6940 0.1915 0.6940
vn -0.4907 0.1915 0.8500
vn -0.2540 0.1915 0.9480
vn -0.0000 0.1916 0.9815
vn 0.2540 0.1915 0.9480
vn 0.4907 0.1916 0.8500
vn 0.6940 0.1916 0.6940
vn 0.8500 0.1916 0.4907
vn 0.9480 0.1916 0.2540
vn 0.7512 0.6287 -0.2013
vn 0.5499 0.6287 -0.5499
vn 0.2013 0.6287 -0.7512
vn 0.0000 0.6287 -0.7777
vn -0.2013 0.6287 -0.7512
vn -0.3888 0.6287 -0.6735
vn -0.5499 0.6287 -0.5499
vn -0.6735 0.6287 -0.3888
vn -0.7512 0.6287 -0.2013
vn -0.7777 0.6287 -0.0000
vn -0.7512 0.6287 0.2013
vn -0.3888 0.6287 0.6735
vn 0.3888 0.6287 0.6735
vn 0.5499 0.6287 0.5499
vn 0.7512 0.6287 0.2013
usemtl Material
s off
f 95/1/1 93/2/1 91/3/1
f 91/3/1 89/4/1 87/5/1
f 87/5/1 85/6/1 83/7/1
f 91/3/1 87/5/1 83/7/1
f 83/7/1 81/8/1 79/9/1
f 79/9/1 77/10/1 75/11/1
f 83/7/1 79/9/1 75/11/1
f 75/11/1 73/12/1 71/13/1
f 71/13/1 69/14/1 67/15/1
f 75/11/1 71/13/1 67/15/1
f 83/7/1 75/11/1 67/15/1
f 67/15/1 65/16/1 63/17/1
f 63/17/1 61/18/1 59/19/1
f 67/15/1 63/17/1 59/19/1
f 59/19/1 57/20/1 55/21/1
f 55/21/1 53/22/1 50/23/1
f 59/19/1 55/21/1 50/23/1
f 67/15/1 59/19/1 50/23/1
f 83/7/1 67/15/1 50/23/1
f 91/3/1 83/7/1 50/23/1
f 95/1/1 91/3/1 50/23/1
f 49/24/1 95/1/1 50/23/1
s 1
f 1/25/2 2/26/3 3/27/4
f 3/27/4 4/28/5 1/25/2
f 5/29/6 6/30/7 2/26/3
f 2/26/3 1/25/2 5/29/6
f 7/31/8 8/32/9 6/30/7
f 6/30/7 5/29/6 7/31/8
f 9/33/10 10/34/11 8/32/9
f 8/32/9 7/31/8 9/33/10
f 11/35/12 12/36/13 10/34/11
f 10/34/11 9/33/10 11/35/12
f 13/37/14 14/38/15 12/36/13
f 12/36/13 11/35/12 13/37/14
f 15/39/16 16/40/17 14/38/15
f 14/38/15 13/37/14 15/39/16
f 17/41/18 18/42/19 16/40/17
f 16/40/17 15/39/16 17/41/18
f 19/43/20 20/44/21 18/42/19
f 18/42/19 17/41/18 19/43/20
f 21/45/22 22/46/23 20/44/21
f 20/44/21 19/43/20 21/45/22
f 23/47/24 24/48/25 22/46/23
f 22/46/23 21/45/22 23/47/24
f 25/49/26 26/50/27 24/48/25
f 24/48/25 23/47/24 25/49/26
f 27/51/28 28/52/29 26/50/27
f 26/50/27 25/49/26 27/51/28
f 29/53/30 30/54/31 28/52/29
f 28/52/29 27/51/28 29/53/30
f 31/55/32 32/56/33 30/54/31
f 30/54/31 29/53/30 31/55/32
f 33/57/34 34/58/35 32/56/33
f 32/56/33 31/55/32 33/57/34
f 35/59/36 36/60/37 34/58/35
f 34/58/35 33/57/34 35/59/36
f 37/61/38 38/62/39 36/60/37
f 36/60/37 35/59/36 37/61/38
f 39/63/40 40/64/41 38/62/39
f 38/62/39 37/61/38 39/63/40
f 41/65/42 42/66/43 40/64/41
f 40/64/41 39/63/40 41/65/42
f 43/67/44 44/68/45 42/66/43
f 42/66/43 41/65/42 43/67/44
f 45/69/46 46/70/47 44/71/45
f 44/71/45 43/72/44 45/69/46
f 47/73/48 48/74/49 46/70/47
f 46/70/47 45/69/46 47/73/48
f 4/28/5 3/27/4 48/74/49
f 48/74/49 47/73/48 4/28/5
f 45/75/1 43/76/1 41/77/1
f 41/77/1 39/78/1 37/79/1
f 37/79/1 35/80/1 33/81/1
f 41/77/1 37/79/1 33/81/1
f 33/81/1 31/82/1 29/83/1
f 29/83/1 27/84/1 25/85/1
f 33/81/1 29/83/1 25/85/1
f 25/85/1 23/86/1 21/87/1
f 21/87/1 19/88/1 17/89/1
f 25/85/1 21/87/1 17/89/1
f 33/81/1 25/85/1 17/89/1
f 17/89/1 15/90/1 13/91/1
f 13/91/1 11/92/1 9/93/1
f 17/89/1 13/91/1 9/93/1
f 9/93/1 7/94/1 5/95/1
f 5/95/1 1/96/1 4/97/1
f 9/93/1 5/95/1 4/97/1
f 17/89/1 9/93/1 4/97/1
f 33/81/1 17/89/1 4/97/1
f 41/77/1 33/81/1 4/97/1
f 45/75/1 41/77/1 4/97/1
f 47/98/1 45/75/1 4/97/1
f 49/99/5 50/100/2 51/101/50
f 51/101/50 52/102/51 49/99/5
f 50/100/2 53/103/6 54/104/52
f 54/104/52 51/101/50 50/100/2
f 53/103/6 55/105/8 56/106/53
f 56/106/53 54/104/52 53/103/6
f 55/107/8 57/108/10 58/109/54
f 58/109/54 56/110/53 55/107/8
f 57/108/10 59/111/12 60/112/55
f 60/112/55 58/109/54 57/108/10
f 59/111/12 61/113/14 62/114/56
f 62/114/56 60/112/55 59/111/12
f 61/113/14 63/115/16 64/116/57
f 64/116/57 62/114/56 61/113/14
f 63/115/16 65/117/18 66/118/58
f 66/118/58 64/116/57 63/115/16
f 65/117/18 67/119/20 68/120/59
f 68/120/59 66/118/58 65/117/18
f 67/119/20 69/121/22 70/122/60
f 70/122/60 68/120/59 67/119/20
f 69/121/22 71/123/24 72/124/61
f 72/124/61 70/122/60 69/121/22
f 71/123/24 73/125/26 74/126/62
f 74/126/62 72/124/61 71/123/24
f 73/125/26 75/127/28 76/128/63
f 76/128/63 74/126/62 73/125/26
f 75/127/28 77/129/30 78/130/64
f 78/130/64 76/128/63 75/127/28
f 77/129/30 79/131/32 80/132/65
f 80/132/65 78/130/64 77/129/30
f 79/131/32 81/133/34 82/134/66
f 82/134/66 80/132/65 79/131/32
f 81/133/34 83/135/36 84/136/67
f 84/136/67 82/134/66 81/133/34
f 83/135/36 85/137/38 86/138/68
f 86/138/68 84/136/67 83/135/36
f 85/137/38 87/139/40 88/140/69
f 88/140/69 86/138/68 85/137/38
f 87/139/40 89/141/42 90/142/70
f 90/142/70 88/140/69 87/139/40
f 89/141/42 91/143/44 92/144/71
f 92/144/71 90/142/70 89/141/42
f 91/143/44 93/145/46 94/146/72
f 94/146/72 92/144/71 91/143/44
f 93/145/46 95/147/48 96/148/73
f 96/148/73 94/146/72 93/145/46
f 95/147/48 49/99/5 52/102/51
f 52/102/51 96/148/73 95/147/48
f 97/149/74 98/150/75 99/151/76
f 99/151/76 100/152/77 101/153/78
f 101/153/78 102/154/79 103/155/80
f 99/151/76 101/153/78 103/155/80
f 103/155/80 104/156/81 105/157/82
f 105/157/82 106/158/83 107/159/84
f 103/155/80 105/157/82 107/159/84
f 107/159/84 108/160/85 109/161/86
f 109/161/86 110/162/87 111/163/88
f 107/159/84 109/161/86 111/163/88
f 103/155/80 107/159/84 111/163/88
f 111/163/88 112/164/89 113/165/90
f 113/165/90 114/166/91 115/167/92
f 111/163/88 113/165/90 115/167/92
f 115/167/92 116/168/93 117/169/94
f 117/169/94 118/170/95 119/171/96
f 115/167/92 117/169/94 119/171/96
f 111/163/88 115/167/92 119/171/96
f 103/155/80 111/163/88 119/171/96
f 99/151/76 103/155/80 119/171/96
f 97/149/74 99/151/76 119/171/96
f 120/172/97 97/149/74 119/171/96
f 121/173/98 122/174/99 3/27/4
f 3/27/4 2/26/3 121/173/98
f 123/175/100 121/173/98 2/26/3
f 2/26/3 6/30/7 123/175/100
f 124/176/101 123/175/100 6/30/7
f 6/30/7 8/32/9 124/176/101
f 125/177/102 124/176/101 8/32/9
f 8/32/9 10/34/11 125/177/102
f 126/178/103 125/177/102 10/34/11
f 10/34/11 12/36/13 126/178/103
f 127/179/104 126/178/103 12/36/13
f 12/36/13 14/38/15 127/179/104
f 128/180/105 127/179/104 14/38/15
f 14/38/15 16/40/17 128/180/105
f 129/181/106 128/180/105 16/40/17
f 16/40/17 18/42/19 129/181/106
f 130/182/107 129/181/106 18/42/19
f 18/42/19 20/44/21 130/182/107
f 131/183/108 130/182/107 20/44/21
f 20/44/21 22/46/23 131/183/108
f 132/184/109 131/183/108 22/46/23
f 22/46/23 24/48/25 132/184/109
f 133/185/110 132/184/109 24/48/25
f 24/48/25 26/50/27 133/185/110
f 134/186/111 133/185/110 26/50/27
f 26/50/27 28/52/29 134/186/111
f 135/187/112 134/186/111 28/52/29
f 28/52/29 30/54/31 135/187/112
f 136/188/113 135/187/112 30/54/31
f 30/54/31 32/56/33 136/188/113
f 137/189/114 136/188/113 32/56/33
f 32/56/33 34/58/35 137/189/114
f 138/190/115 137/189/114 34/58/35
f 34/58/35 36/60/37 138/190/115
f 139/191/116 138/190/115 36/60/37
f 36/60/37 38/62/39 139/191/116
f 140/192/117 139/191/116 38/62/39
f 38/62/39 40/64/41 140/192/117
f 141/193/118 140/192/117 40/64/41
f 40/64/41 42/66/43 141/193/118
f 142/194/119 141/193/118 42/66/43
f 42/66/43 44/68/45 142/194/119
f 143/195/120 142/196/119 44/71/45
f 44/71/45 46/70/47 143/195/120
f 144/197/121 143/195/120 46/70/47
f 46/70/47 48/74/49 144/197/121
f 122/174/99 144/197/121 48/74/49
f 48/74/49 3/27/4 122/174/99
f 51/198/122 97/149/74 120/172/97
f 120/172/97 52/199/51 51/198/122
f 54/200/52 98/150/75 97/149/74
f 97/149/74 51/198/122 54/200/52
f 56/201/123 99/151/76 98/150/75
f 98/150/75 54/200/52 56/201/123
f 58/202/54 100/152/77 99/151/76
f 99/151/76 56/201/123 58/202/54
f 60/203/124 101/153/78 100/152/77
f 100/152/77 58/202/54 60/203/124
f 62/204/125 102/154/79 101/153/78
f 101/153/78 60/203/124 62/204/125
f 64/205/126 103/155/80 102/154/79
f 102/154/79 62/204/125 64/205/126
f 66/206/127 104/156/81 103/155/80
f 103/155/80 64/205/126 66/206/127
f 68/207/128 105/157/82 104/156/81
f 104/156/81 66/206/127 68/207/128
f 70/208/129 106/158/83 105/157/82
f 105/157/82 68/207/128 70/208/129
f 72/209/130 107/159/84 106/158/83
f 106/158/83 70/208/129 72/209/130
f 74/210/131 108/160/85 107/159/84
f 107/159/84 72/209/130 74/210/131
f 76/211/132 109/161/86 108/160/85
f 108/160/85 74/210/131 76/211/132
f 78/212/64 110/162/87 109/161/86
f 109/161/86 76/211/132 78/212/64
f 80/213/65 111/163/88 110/162/87
f 110/162/87 78/212/64 80/213/65
f 82/214/133 112/164/89 111/163/88
f 111/163/88 80/213/65 82/214/133
f 84/215/67 113/165/90 112/164/89
f 112/164/89 82/214/133 84/215/67
f 86/216/68 114/166/91 113/165/90
f 113/165/90 84/215/67 86/216/68
f 88/217/69 115/167/92 114/166/91
f 114/166/91 86/216/68 88/217/69
f 90/218/134 116/168/93 115/167/92
f 115/167/92 88/217/69 90/218/134
f 92/219/135 117/169/94 116/168/93
f 116/168/93 90/218/134 92/219/135
f 94/220/72 118/170/95 117/169/94
f 117/169/94 92/219/135 94/220/72
f 96/221/136 119/171/96 118/170/95
f 118/170/95 94/220/72 96/221/136
f 52/199/51 120/172/97 119/171/96
f 119/171/96 96/221/136 52/199/51
